<?xml version="1.0" encoding="UTF-8"?><svg id="Layer_1" xmlns="http://www.w3.org/2000/svg" width="3280" height="5768" xmlns:xlink="http://www.w3.org/1999/xlink" viewBox="0 0 3280 5768"><defs><style>.cls-1{fill:#fff;}.cls-2{clip-path:url(#clippath);}.cls-3,.cls-4,.cls-5{fill:none;}.cls-4{stroke-width:5px;}.cls-4,.cls-5{stroke:#f5edeb;stroke-miterlimit:10;}.cls-5{stroke-width:7px;}</style><clipPath id="clippath"><rect class="cls-3" x="-1240" y="1264" width="5760" height="3240" transform="translate(-1244 4524) rotate(-90)"/></clipPath></defs><rect class="cls-1" x="-1240" y="1264" width="5760" height="3240" transform="translate(-1244 4524) rotate(-90)"/><g class="cls-2"><path class="cls-4" d="M568.988,5013.822c34.237,20.005,38.715,72.673,27.202,112.633-38.805,134.682-176.625,214.452-249.753,334.024-45.727,74.769-51.876,277.95-114.863,303.586-10.029,4.082-213.072-2.707-213.075-.065,.13-112.072,0-224.148,0-336.221,0-42.643-19.641-145.426-.047-181.538,20.144-37.125,91.584-45.452,133.116-60.171,106.877-37.878,212.537-81.631,307.094-145.038,30.746-20.617,67.266-44.322,101.89-31.225,2.992,1.132,5.802,2.477,8.435,4.016Z"/><path class="cls-4" d="M558.993,5722.293c-17.518-123.369,45.664-243.672,119.161-344.295,73.496-100.623,160.834-194.59,204.005-311.479,43.171-116.889,27.566-268.271-75.375-338.485-82.124-56.015-194.318-43.921-285.617-4.593-91.299,39.328-170.43,102.244-259.05,147.284-88.62,45.04-195.554,71.29-286.795,31.831"/><path class="cls-4" d="M845.167,5732.324c-48.599-97.407-15.112-216.58,39.898-310.516s130.539-176.011,173.886-275.866c39.936-91.996,50.245-194.003,53.091-294.253,2.435-85.809-.534-173.431-29.108-254.379-28.574-80.949-86.244-155.21-166.392-185.958-104.907-40.246-223.384,.353-321.254,55.549-57.937,32.675-113.476,70.771-176.089,93.22-144.603,51.844-310.293,14.714-453.53,70.222"/><path class="cls-4" d="M1089.522,5777.113c-47.752-69.802-55.003-160.989-38.897-244.014,16.106-83.025,53.287-160.203,88.985-236.873,63.061-135.439,122.984-273.76,153.425-420.026,30.441-146.266,29.86-302.363-25.831-440.996-55.691-138.633-171.798-257.11-316.736-293.352-156.899-39.233-324.675,20.972-454.445,117.493-48.616,36.16-94.57,78.008-151.089,99.841-136.545,52.745-287.236-24.615-433.608-23.28"/><path class="cls-5" d="M2562.902,6367.363c-318.379-47.034-622.606-186.191-866.394-396.298-99.48-85.736-192.045-188.195-227.279-314.707-54.589-196.003,37.872-398.377,98.819-592.497,82.177-261.735,106.841-551.742,6.753-807.164-100.088-255.422-344.544-464.684-618.867-466.818-320.135-2.491-583.295,256.711-896.614,322.465-320.023,67.161-674.761-97.849-829.562-385.88-122.86-228.598-101.916-551.553,106.826-705.756,181.491-134.071,430.255-103.758,654.518-128.662,384.532-42.703,744.735-263.681,1130.663-236.33,265.807,18.838,510.531,155.613,716.611,324.548,167.527,137.331,320.674,300.604,520.371,384.545,226.736,95.306,484.498,75.723,726.808,33.556,120.33-20.94,241.362-47.148,363.299-40.132,121.937,7.016,247.93,52.466,322.122,149.489"/><path class="cls-4" d="M2356.465,6016.6c-151.009,5.229-306.458-18.512-437.536-93.675-131.078-75.163-234.578-207.035-251.41-357.194-16.324-145.63,47.015-286.674,100.53-423.095,81.48-207.709,143.777-429.712,121.631-651.73-35.931-360.218-296.319-671.215-615.702-841.634-113.618-60.625-239.717-107.022-368.26-99.192-142.694,8.692-272.295,82.551-394.116,157.362-121.821,74.812-246.394,154.242-387.638,176.314-141.244,22.072-305.35-30.251-366.821-159.319-60.677-127.401,1.416-288.23,112.502-375.252,111.086-87.022,258.377-113.184,399.472-115.44,85.621-1.369,172.609,4.856,255.76-15.608,73.548-18.1,140.306-56.185,207.195-91.721,237.189-126.01,533.446-222.849,765.122-86.969,136.988,80.345,219.834,225.531,323.315,345.999,89.489,104.178,197.564,192.344,317.592,259.087,69.067,38.405,143.644,70.171,222.392,76.798,141.324,11.892,280.863-57.856,421.748-41.573,133.227,15.398,244.288,104.164,363.061,166.45,150.004,78.665,320.091,117.793,461.118,211.605,173.759,115.586,288.176,306.915,339.631,509.164,51.455,202.249,44.566,415.389,13.355,621.734-32.259,213.28-95.004,431.66-242.092,589.439"/><path class="cls-4" d="M2882.86,5897.868c-279.533,91.34-616.446-62.904-729.965-334.189-115.088-275.036-10.468-590.11-41.615-886.623-16.737-159.329-72.909-312.053-140.615-457.249-107.282-230.067-248.987-450.658-451.277-604.015-202.291-153.357-472.928-231.286-716.454-159.625-185.558,54.603-363.293,192.217-551.333,146.898-12.229-2.947-24.643-6.858-34.262-14.964-27.817-23.44-18.214-71.663,9.193-95.581,27.407-23.918,65.397-30.399,101.155-37.071,112.983-21.08,223.88-53.323,330.553-96.106,156.252-62.668,310.452-149.466,478.799-148.347,186.736,1.242,356.254,112.175,488.101,244.419,131.847,132.244,237.841,288.706,372.459,418.128,134.618,129.422,310.135,233.55,496.574,222.933,116.928-6.659,227.649-57.757,344.44-66.5,157.606-11.799,312.945,55.585,437.248,153.194,124.303,97.61,222.34,224.002,319.03,349.021"/><path class="cls-4" d="M3150.192,5902.015c-143.995-35.143-290.684-71.39-416.806-149.254-126.122-77.865-230.583-205.672-241.918-353.46-9.033-117.779,40.678-231.827,52.088-349.399,9.254-95.359-7.35-193.103-47.575-280.056-34.311-74.169-86.698-145.88-83.26-227.528,4.319-102.571,115.189-186.427,215.062-162.662,55.099,13.111,100.66,51.98,154.346,70.027,83.578,28.096,174.427,2.818,262.546-.291,161.395-5.695,323.643,69.444,423.691,196.216"/><path class="cls-4" d="M3399.882,5517.777c-72.622,47.393-146.55,95.402-229.664,120.14-83.114,24.739-178.227,23.355-250.886-23.98-53.118-34.605-89.603-90.68-110.691-150.466-23.578-66.844-28.912-142.821-.002-207.536,24.093-53.932,71.446-101.295,69.992-160.346-1.676-68.092-67.22-116.618-89.712-180.91-29.578-84.548,35.323-188.167,124.302-198.457,72.977-8.439,139.923,36.137,208.298,63.001,75.753,29.763,159.685,38.391,239.909,24.662"/><path class="cls-4" d="M3298.41,5267.938c-27.976,39.986-68.111,71.344-113.677,88.815-30.309,11.621-67.225,16.244-93.103-3.351-19.605-14.845-28.088-40.043-33.016-64.136-19.414-94.915,7.061-205.701,87.696-259.402,99.626-66.349,248.858-29.519,336.508-111.036"/><path class="cls-4" d="M3358.292,2928.153c-192.622,105.894-366.277,268.143-584.82,291.711-133.269,14.372-268.88-27.006-381.79-99.244-112.911-72.239-204.67-173.784-280.829-284.089-60.92-88.234-113.87-186.443-122.747-293.297-13.719-165.132,81.06-322.648,202.803-435.054,110.25-101.794,259.868-179.449,406.759-148.789,125.844,26.267,235.572,128.668,363.547,116.461,146.165-13.942,247.703-172.819,394.069-184.456"/><path class="cls-4" d="M3387.657,2697.006c-165.437,159.385-380.734,266.254-607.713,301.657-93.245,14.544-191.886,16.67-278.589-20.595-140.665-60.458-224.461-229.924-187.113-378.406,37.349-148.482,191.354-258.132,343.883-244.841,69.604,6.065,135.343,34.266,204.146,46.42,171.518,30.301,357.493-50.232,452.745-196.053"/><path class="cls-4" d="M3321.462,2612.747c-90.988,72.577-194.69,129.17-304.956,166.423-57.684,19.488-117.929,33.807-178.802,32.497-99.886-2.15-193.839-45.857-281.892-93.065-29.559-15.848-62.219-36.918-66.403-70.196-4.401-35.003,27.334-66.014,61.532-74.679,34.198-8.665,70.098-1.186,104.963,4.202,241.907,37.384,498.483-33.249,687.174-189.174"/><path class="cls-4" d="M-297.227,2589.598c243.39,78.422,513.932,116.426,751.289,21.292,111.084-44.523,208.93-115.83,310.99-178.326,165.473-101.326,363.469-182.396,550.183-129.611,108.07,30.552,198.697,102.43,295.892,158.695,36.233,20.975,80.878,40.143,118.391,21.554,28.22-13.984,42.947-45.158,54.368-74.509,61.461-157.956,87.528-328.741,158.299-482.751,70.772-154.01,203.958-296.729,373.012-308.907,124.156-8.943,240.602,53.027,356.386,98.73,115.784,45.703,255.135,73.803,358.568,4.548,90.873-60.846,125.112-187.197,92.823-291.683-32.289-104.487-121.581-185.337-223.58-224.788-101.999-39.451-215.334-41.322-323.394-24.493-251.165,39.117-484.929,180.207-636.575,384.21-57.167,76.904-103.737,162.947-174.037,228.063-70.3,65.116-174.392,106.248-262.946,69.638-74.629-30.854-118.672-106.966-155.634-178.766-58.641-113.91-113.271-229.886-163.755-347.639-37.372-87.17-73.286-176.709-132.874-250.497-59.588-73.788-148.188-130.834-242.971-127.451-134.092,4.786-233.325,121.71-313.623,229.208-80.298,107.497-177.209,225.459-311.12,233.908-108.579,6.851-234.085-58.334-316.81,12.327"/><path class="cls-4" d="M-71.946,2142.904c197.861,55.801,413.076,96.427,605.602,24.34,151.366-56.676,278.099-179.726,438.323-200.986,143.911-19.095,284.637,48.586,407.665,125.652,19.913,12.474,40.559,25.583,63.907,28.226,23.348,2.643,50.167-8.822,56.729-31.384,7.112-24.453-11.365-48.528-29.918-65.972-121.681-114.406-304.704-164.457-389.652-308.258-43.33-73.349-54.056-160.776-80.791-241.664-26.735-80.888-79.46-163.45-162.563-182.194-92.511-20.866-180.356,44.082-253.039,104.998-57.885,48.514-115.77,97.028-173.655,145.542-43.158,36.171-87.332,72.955-139.784,93.442-109.815,42.893-232.946,7.273-345.277-28.517"/><path class="cls-4" d="M-48.695,2002.399c155.186,71.932,340.139,67.909,499.124,4.815,60.68-24.081,119.453-57.445,161.018-107.787,15.792-19.127,29.285-41.721,30.312-66.503,1.307-31.519-18.506-61.282-44.936-78.505-26.429-17.223-58.545-23.567-90.033-25.489-91.403-5.581-182.31,23.39-262.458,67.685-58.42,32.288-116.625,74.069-183.374,74.159-55.981,.076-107.153-29.529-155.215-58.235"/><path class="cls-4" d="M3294.5,1202.254c-48.493-116.382-167.656-191.939-289.903-234.262-333.67-115.518-728.223-22.656-986.725,211.63-73.334,66.464-137.169,143.479-219.151,199.727-81.982,56.248-190.024,89.63-283.874,54.755-99.886-37.118-156.419-139.858-184.633-239.592-28.213-99.734-37.524-205.607-84.628-298.445-54.66-107.73-159.172-189.557-278.117-224.045-118.944-34.489-250.612-22.515-363.293,27.918-77.144,34.528-145.505,86.062-224.354,116.788-107.112,41.739-230.938,41.779-338.079,.107"/><path class="cls-5" d="M62.436,411.225c120.282,114.009,306.665,125.723,468.92,91.973,162.255-33.75,314.942-105.484,477.773-136.339,162.831-30.854,349.961-12.021,463.981,108.251,73.289,77.307,104.955,183.654,147.394,281.36,42.439,97.706,106.863,197.437,208.869,228.134,105.126,31.636,217.965-20.52,303.317-89.566,85.352-69.047,156.363-156.25,249.831-213.836,135.933-83.749,306.567-95.463,463.426-65.681,156.859,29.782,303.545,97.558,448.389,164.73"/><path class="cls-4" d="M27.672,102.992c-20.34-4.07-39.77-12.625-56.507-24.881,146.672,155.32,374.457,246.499,579.727,187.326C763.782,204.067,903.424,5.398,1019.781-183.148"/><path class="cls-4" d="M1645.139,66.362c.396,118.711,17.932,241.418,80.92,342.041,62.989,100.622,179.547,174.202,297.263,158.858,113.825-14.836,201.855-104.457,275.406-192.585,137.405-164.636,258.589-342.803,361.229-531.085"/><path class="cls-4" d="M3304.538,527.129c5.235,.537,6.659-8.243,2.486-11.45-4.172-3.208-10.064-2.307-15.236-1.334-77.057,14.506-159.092,9.936-230.439-22.587-71.347-32.522-130.645-94.912-150.331-170.811-19.429-74.908,.629-155.822,39.102-222.967,38.473-67.145,94.037-122.668,150.366-175.73"/><path class="cls-4" d="M3220.237,397.692c-35.588,.866-66.492-26.816-82.322-58.702-22.809-45.946-21.385-101.745-2.285-149.352,19.1-47.607,54.552-87.432,95.839-117.873"/></g></svg>