<?xml version="1.0" encoding="UTF-8"?><svg id="Layer_2" xmlns="http://www.w3.org/2000/svg" width="16" height="16" viewBox="0 0 16 16"><defs><style>.cls-1{fill:#fff;}</style></defs><path class="cls-1" d="M2.511,7.206l.187-.374-.555-2.592,.614-1.458,.384-.767,.537-.537,.767,.69,.683,1.3,.561,.934,3.36-.086,1.311,.086,1.682-2.242,.218-.682,.548,.23,.537,.921,.462,1.388,.305,1.374-.763,1.441,.374,.747,.934,2.989h0l.187,.561-.374,.374-.561,.374-.641,.956-1.458,.614-1.228,.614s-2.343,.493-2.322,.477-2.019-.176-2.019-.176l-2.18-.914-1.532-.966-1.174-.666,.043-.42-.267-.313,.26-.7,.374-.747,.289-1.906"/><g><path d="M8.26,10.644c0,.147-.183,.417-.455,.417-.379,0-.531-.271-.531-.417s.221-.266,.493-.266,.493,.119,.493,.266Z"/><path d="M8.598,11.935c-.341,0-.621-.072-.831-.42-.076-.126-.114-.21-.132-.293l-.052-.245s.001-.005,.004-.006l.384-.049s.005,.001,.006,.004l.034,.128c.013,.048,.028,.094,.045,.137,.035,.086,.092,.162,.169,.22,.022,.016,.044,.03,.064,.038,.153,.052,.23,.052,.386,.052s.346-.105,.544-.29c.155-.145,.541-.147,.544-.145l-.466,.507c-.078,.072-.379,.36-.699,.362-.004,0,.004,0,0,0Z"/><path d="M11.43,5.191c-.243-.311-.439-.723-.805-.795l-.586-.145c-1.394-.234-2.849-.215-4.247,0l-.513,.072c-.248,.041-.475,.17-.649,.337-.092,.088-.191,.193-.278,.304l-.172,.22,.77-.224c.036-.011,.073-.019,.111-.025l.823-.126c1.354-.208,2.726-.199,4.077,.028l.571,.096c.045,.008,.089,.018,.132,.031l.765,.228h0Z"/><path d="M14.62,11.355l-1.885,1.232c-2.998,1.882-5.437,1.957-7.974,.87-.469-.201-.946-.44-1.45-.797l-1.957-1.305-1.087,.02,.48,.327,2.032,1.441c.522,.37,1.009,.66,1.49,.888,1.174,.557,2.355,.836,3.556,.836,1.725,0,3.49-.576,5.328-1.73l2.03-1.434,.597-.347h-1.16Z"/><path d="M1.789,4.758c.078-.958,.445-1.955,.942-2.755l.217-.362c.145-.217,.362-.507,.652-.507s.58,.217,.797,.507l1.377,1.667,.29,.362-.797,.072-.149-.183h0s-.003-.004-.003-.004l-.008-.008h.001s-1.308-1.666-1.308-1.666c-.041-.054-.1-.08-.163-.079-.064,.003-.119,.035-.153,.089l-.255,.408c-.461,.74-.739,1.588-.815,2.475-.025,.293-.007,.589,.045,.879l.147,.816,.076,.379-.677-.425-.098-.359c-.115-.423-.156-.862-.12-1.299,0-.003,0-.006,0-.009Z"/><path d="M.484,10.63c.362-.507,.725-1.232,.87-1.812l.362-1.45,.145-.58,.58,.507-.507,2.03c-.154,.564-.365,1.012-.689,1.498l-.978,.097,.217-.29Z"/><path d="M11.793,8.6c-.286-.278-.835-.831-1.522-.87-.039-.002-.106,0-.145,0-.039,0-.033-.002-.072,0-.688,.039-1.236,.592-1.522,.87l-.29,.29,.451-.029c.107,0,.211-.034,.298-.097,.21-.153,.519-.446,1.063-.457,.009,0,.017,0,.026,0,0,0,.047,.002,.07,.001,.023,0,.07-.001,.07-.001,.009,0,.017,0,.026,0,.544,.011,.854,.305,1.063,.457,.087,.063,.191,.097,.298,.097l.475,.029-.29-.29Z"/><path d="M14.256,4.783c-.078-.958-.445-1.955-.942-2.755l-.217-.362c-.145-.217-.362-.507-.652-.507s-.58,.217-.797,.507l-1.377,1.667-.29,.362,.797,.072,.149-.183h0s.003-.004,.003-.004l.008-.008h-.001s1.308-1.666,1.308-1.666c.041-.054,.1-.08,.163-.079,.064,.003,.119,.035,.153,.089l.255,.408c.461,.74,.739,1.588,.815,2.475,.025,.293,.007,.589-.045,.879l-.147,.816-.076,.379,.677-.425,.098-.359c.115-.423,.156-.862,.12-1.299,0-.003,0-.006,0-.009Z"/><path d="M15.561,10.655c-.362-.507-.725-1.232-.87-1.812l-.362-1.45-.145-.58-.58,.507,.507,2.03c.154,.564,.365,1.012,.689,1.498l.978,.097-.217-.29Z"/><path d="M3.67,8.623c.286-.278,.835-.831,1.522-.87,.039-.002,.106,0,.145,0,.039,0,.033-.002,.072,0,.688,.039,1.236,.592,1.522,.87l.29,.29-.451-.029c-.107,0-.211-.034-.298-.097-.21-.153-.519-.446-1.063-.457-.009,0-.017,0-.026,0,0,0-.047,.002-.07,.001-.023,0-.07-.001-.07-.001-.009,0-.017,0-.026,0-.544,.011-.854,.305-1.063,.457-.087,.063-.191,.097-.298,.097l-.475,.029,.29-.29Z"/><path d="M6.997,11.927c.341,0,.621-.072,.831-.42,.076-.126,.114-.21,.132-.293l.052-.245s-.001-.005-.004-.006l-.384-.049s-.005,.001-.006,.004l-.034,.128c-.013,.048-.028,.094-.045,.137-.035,.086-.092,.162-.169,.22-.022,.016-.044,.03-.064,.038-.153,.052-.23,.052-.386,.052s-.346-.105-.544-.29c-.155-.145-.541-.147-.544-.145l.466,.507c.078,.072,.379,.36,.699,.362,.004,0-.004,0,0,0Z"/></g></svg>