<?xml version="1.0" encoding="UTF-8"?><svg id="Layer_1" xmlns="http://www.w3.org/2000/svg" width="250" height="250" viewBox="0 0 250 250"><path d="M130.219,159.468c0,1.912-2.384,5.441-5.935,5.441-4.946,0-6.924-3.528-6.924-5.441s2.879-3.462,6.43-3.462,6.43,1.55,6.43,3.462Z"/><path d="M134.631,176.284c-4.444,0-8.097-.945-10.829-5.479-.989-1.641-1.485-2.733-1.717-3.823l-.683-3.198c-.008-.036,.019-.071,.058-.076l5.011-.643c.035-.004,.068,.016,.076,.048l.448,1.674c.166,.619,.364,1.23,.589,1.786,.452,1.117,1.204,2.116,2.197,2.868,.281,.213,.572,.397,.832,.493,1.992,.681,3.004,.681,5.028,.681s4.505-1.371,7.085-3.779c2.024-1.89,7.056-1.914,7.085-1.89l-6.073,6.614c-1.012,.945-4.94,4.688-9.11,4.724-.055,0,.054,0,0,0Z"/><path d="M171.546,88.386c-3.166-4.056-5.726-9.422-10.498-10.367l-7.635-1.89c-18.172-3.045-37.136-2.798-55.355,0l-6.681,.945c-3.236,.538-6.195,2.215-8.459,4.398-1.193,1.15-2.486,2.512-3.618,3.962l-2.239,2.869,10.032-2.92c.473-.138,.957-.245,1.446-.32l10.725-1.647c17.654-2.713,35.534-2.591,53.141,.359l7.442,1.247c.584,.098,1.159,.231,1.724,.399l9.976,2.966h0Z"/><path d="M213.12,168.725l-24.567,16.063c-39.079,24.533-70.864,25.511-103.934,11.338-6.118-2.622-12.331-5.738-18.897-10.393l-25.511-17.007-14.173,.264,6.262,4.263,26.489,18.777c6.798,4.819,13.151,8.607,19.422,11.581,15.299,7.255,30.699,10.89,46.349,10.89,22.484,0,45.484-7.503,69.444-22.554l26.456-18.692,7.778-4.529h-15.118Z"/><path d="M45.88,82.743c1.016-12.486,5.796-25.477,12.283-35.905l2.835-4.724c1.89-2.835,4.724-6.614,8.504-6.614s7.559,2.835,10.393,6.614l17.952,21.732,3.779,4.724-10.393,.945-1.944-2.385-.007,.005-.042-.054-.103-.103,.014-.01-17.043-21.707c-.531-.707-1.299-1.048-2.118-1.033-.829,.035-1.556,.459-1.996,1.162l-3.323,5.318c-6.004,9.649-9.627,20.693-10.625,32.261-.33,3.825-.087,7.678,.591,11.456l1.912,10.639,.989,4.946-8.824-5.537-1.278-4.686c-1.503-5.51-2.031-11.239-1.566-16.932,.003-.038,.006-.076,.009-.114Z"/><path d="M28.872,159.277c4.724-6.614,9.449-16.063,11.338-23.621l4.724-18.897,1.89-7.559,7.559,6.614-6.614,26.456c-2.004,7.347-4.755,13.189-8.981,19.528l-12.751,1.259,2.835-3.779Z"/><path d="M176.27,132.82c-3.731-3.624-10.878-10.836-19.842-11.338-.512-.029-1.377-.009-1.89,0-.513-.009-.433-.029-.945,0-8.964,.503-16.112,7.714-19.842,11.338l-3.779,3.779,5.878-.378c1.398,0,2.752-.441,3.883-1.263,2.733-1.988,6.768-5.813,13.858-5.957,.119-.002,.226,.008,.344,.007,0,0,.612,.026,.916,.018,.304,.008,.916-.018,.916-.018,.118,0,.225-.009,.344-.007,7.09,.145,11.125,3.969,13.858,5.957,1.131,.823,2.485,1.263,3.883,1.263l6.197,.378-3.779-3.779Z"/><path d="M208.375,83.075c-1.016-12.486-5.796-25.477-12.283-35.905l-2.835-4.724c-1.89-2.835-4.724-6.614-8.504-6.614s-7.559,2.835-10.393,6.614l-17.952,21.732-3.779,4.724,10.393,.945,1.944-2.385,.007,.005,.042-.054,.103-.103-.014-.01,17.043-21.707c.531-.707,1.299-1.048,2.118-1.033,.829,.035,1.556,.459,1.996,1.162l3.323,5.318c6.004,9.649,9.627,20.693,10.625,32.261,.33,3.825,.087,7.678-.591,11.456l-1.912,10.639-.989,4.946,8.824-5.537,1.278-4.686c1.503-5.51,2.031-11.239,1.566-16.932-.003-.038-.006-.076-.009-.114Z"/><path d="M225.383,159.608c-4.724-6.614-9.449-16.063-11.338-23.621l-4.724-18.897-1.89-7.559-7.559,6.614,6.614,26.456c2.004,7.347,4.755,13.189,8.981,19.528l12.751,1.259-2.835-3.779Z"/><path d="M70.396,133.117c3.731-3.624,10.878-10.836,19.842-11.338,.512-.029,1.377-.009,1.89,0,.513-.009,.433-.029,.945,0,8.964,.503,16.112,7.714,19.842,11.338l3.779,3.779-5.878-.378c-1.398,0-2.752-.441-3.883-1.263-2.733-1.988-6.768-5.813-13.858-5.957-.119-.002-.226,.008-.344,.007,0,0-.612,.026-.916,.018-.304,.008-.916-.018-.916-.018-.118,0-.225-.009-.344-.007-7.09,.145-11.125,3.969-13.858,5.957-1.131,.823-2.485,1.263-3.883,1.263l-6.197,.378,3.779-3.779Z"/><path d="M113.763,176.181c4.444,0,8.097-.945,10.829-5.479,.989-1.641,1.485-2.733,1.717-3.823l.683-3.198c.008-.036-.019-.071-.058-.076l-5.011-.643c-.035-.004-.068,.016-.076,.048l-.448,1.674c-.166,.619-.364,1.23-.589,1.786-.452,1.117-1.204,2.116-2.197,2.868-.281,.213-.572,.397-.832,.493-1.992,.681-3.004,.681-5.028,.681s-4.505-1.371-7.085-3.779c-2.024-1.89-7.056-1.914-7.085-1.89l6.073,6.614c1.012,.945,4.94,4.688,9.11,4.724,.055,0-.054,0,0,0Z"/><path d="M101.539,154.665l4.732-.81-29.412-9.866c-11.958-4.011-25.226-6.86-38.868-8.346l-33.235-3.619,11.496,4.332,19.636,1.719c13.165,1.153,26.074,3.721,37.697,7.5l27.956,9.089Z"/><path d="M96.312,157.633l3.905-1.087-25.783-6.209c-10.483-2.524-21.951-3.932-33.598-4.123l-28.372-.466,10.126,2.841,16.72-.089c11.211-.059,22.348,1.133,32.525,3.482l24.477,5.65Z"/><path d="M146.541,154.88l-4.825-.81,29.996-9.866c12.196-4.011,25.726-6.86,39.639-8.346l33.894-3.619-11.724,4.332-20.025,1.719c-13.426,1.153-26.591,3.721-38.445,7.5l-28.51,9.089Z"/><path d="M151.872,157.847l-3.983-1.087,26.295-6.209c10.691-2.524,22.387-3.932,34.264-4.123l28.935-.466-10.326,2.841-17.052-.089c-11.433-.059-22.792,1.133-33.17,3.482l-24.962,5.65Z"/></svg>